Coordinates
version=1
nRows=60
nColumns=12
inDegrees=yes

Units are S.I. units (second, meters, Newtons, ...)
Angles are in degrees

endheader
time	SC_y	SC_z	SC_x	AC_y	AC_z	AC_x	GH_y	GH_z	GH_yy	EL_x	PS_y
       0.0              -29.75         -2.076          65.22          39.95         -10.39         -10.98          148.4          52.26         -173.9          27.01          121.0
   0.04463              -29.76         -2.071          65.21          39.95         -10.39         -10.98          148.4          52.25         -173.9          27.01          121.0
   0.08927              -29.76         -2.066          65.21          39.95         -10.39         -10.98          148.3          52.25         -173.8          27.01          121.1
    0.1339              -29.77         -2.061           65.2          39.96         -10.39         -10.98          148.3          52.24         -173.8          27.01          121.1
    0.1785              -29.77         -2.055          65.19          39.96         -10.39         -10.98          148.3          52.23         -173.8          27.02          121.1
    0.2232              -29.78         -2.049          65.18          39.96         -10.38         -10.98          148.2          52.22         -173.8          27.02          121.1
    0.2678              -29.78         -2.042          65.18          39.96         -10.38         -10.97          148.2          52.21         -173.8          27.02          121.1
    0.3124              -29.79         -2.035          65.17          39.97         -10.38         -10.97          148.1           52.2         -173.8          27.02          121.1
    0.3571              -29.79         -2.028          65.16          39.97         -10.38         -10.97          148.1          52.19         -173.7          27.03          121.1
    0.4017               -29.8          -2.02          65.15          39.97         -10.37         -10.97          148.0          52.18         -173.7          27.03          121.1
    0.4463              -29.81         -2.011          65.14          39.98         -10.37         -10.97          148.0          52.17         -173.7          27.03          121.1
     0.491              -29.82         -2.002          65.13          39.98         -10.37         -10.97          147.9          52.15         -173.7          27.04          121.1
    0.5356              -29.82         -1.992          65.11          39.98         -10.36         -10.96          147.9          52.14         -173.7          27.04          121.1
    0.5803              -29.83         -1.981           65.1          39.99         -10.36         -10.96          147.8          52.12         -173.6          27.05          121.1
    0.6249              -29.84         -1.969          65.09          39.99         -10.36         -10.96          147.7          52.11         -173.6          27.05          121.1
    0.6695              -29.85         -1.956          65.07           40.0         -10.35         -10.96          147.6          52.09         -173.6          27.05          121.1
    0.7142              -29.87         -1.943          65.05           40.0         -10.35         -10.96          147.6          52.07         -173.5          27.06          121.1
    0.7588              -29.88         -1.927          65.03          40.01         -10.34         -10.95          147.5          52.05         -173.5          27.07          121.2
    0.8034              -29.89         -1.911          65.01          40.02         -10.34         -10.95          147.4          52.02         -173.5          27.07          121.2
    0.8481              -29.91         -1.893          64.99          40.02         -10.33         -10.95          147.2           52.0         -173.4          27.08          121.2
    0.8927              -29.92         -1.873          64.97          40.03         -10.33         -10.94          147.1          51.97         -173.4          27.09          121.2
    0.9373              -29.94         -1.851          64.94          40.04         -10.32         -10.94          147.0          51.94         -173.3           27.1          121.2
     0.982              -29.96         -1.827          64.91          40.05         -10.31         -10.93          146.8           51.9         -173.2           27.1          121.2
     1.027              -29.98         -1.801          64.88          40.06          -10.3         -10.93          146.7          51.87         -173.2          27.12          121.3
     1.071              -30.01         -1.771          64.84          40.07         -10.29         -10.92          146.5          51.82         -173.1          27.13          121.3
     1.116              -30.04         -1.738           64.8          40.09         -10.28         -10.92          146.3          51.78         -173.0          27.14          121.3
     1.161              -30.07         -1.701          64.76           40.1         -10.27         -10.91          146.0          51.72         -172.9          27.15          121.3
     1.205               -30.1         -1.659           64.7          40.12         -10.26          -10.9          145.8          51.66         -172.8          27.17          121.4
      1.25              -30.14         -1.612          64.65          40.14         -10.24         -10.89          145.5           51.6         -172.7          27.19          121.4
     1.294              -30.19         -1.558          64.58          40.16         -10.23         -10.88          145.1          51.52         -172.6          27.21          121.4
     1.339              -30.24         -1.497          64.51          40.18         -10.21         -10.87          144.7          51.43         -172.4          27.23          121.5
     1.384               -30.3         -1.427          64.42          40.21         -10.18         -10.86          144.3          51.33         -172.3          27.26          121.5
     1.428              -30.36         -1.346          64.32          40.24         -10.16         -10.84          143.8          51.22         -172.1          27.29          121.6
     1.473              -30.44         -1.252           64.2          40.28         -10.13         -10.83          143.2          51.08         -171.8          27.33          121.7
     1.518              -30.53         -1.143          64.07          40.33         -10.09         -10.81          142.5          50.93         -171.5          27.37          121.8
     1.562              -30.64         -1.013          63.91          40.38         -10.05         -10.78          141.7          50.74         -171.2          27.42          121.9
     1.607              -30.77        -0.8588          63.72          40.44          -10.0         -10.75          140.7          50.52         -170.8          27.48          122.0
     1.651              -30.92        -0.6741          63.49          40.51         -9.942         -10.72          139.5          50.26         -170.4          27.55          122.1
     1.696              -31.11        -0.4507          63.22           40.6          -9.87         -10.68          138.1          49.94         -169.8          27.64          122.3
     1.741              -31.34        -0.1777          62.88          40.71         -9.783         -10.62          136.4          49.55         -169.2          27.75          122.5
     1.785              -31.62         0.1591          62.47          40.85         -9.675         -10.56          134.2          49.07         -168.3          27.88          122.8
      1.83              -31.97         0.5792          61.95          41.02          -9.54         -10.48          131.6          48.46         -167.3          28.04          123.1
     1.875              -32.41          1.108           61.3          41.23          -9.37         -10.38          128.2          47.71         -166.0          28.25          123.5
     1.919              -32.97          1.781          60.47           41.5         -9.154         -10.26          124.0          46.75         -164.3          28.51          124.0
     1.964              -33.69          2.642          59.42          41.85         -8.878          -10.1          118.5          45.52         -162.2          28.85          124.6
     2.009              -34.61          3.747          58.06           42.3         -8.523         -9.889          111.5          43.94         -159.4          29.28          125.5
     2.053              -35.79          5.158          56.32          42.87          -8.07         -9.624          102.6          41.92         -155.9          29.83          126.6
     2.098              -37.27          6.933          54.14          43.58           -7.5         -9.291          91.34          39.38         -151.5          30.52          127.9
     2.142              -39.08          9.096          51.48          44.45         -6.806         -8.886          77.64          36.29         -146.2          31.36          129.6
     2.187              -41.17           11.6           48.4          45.46         -6.002         -8.416          61.76          32.71         -140.0          32.34          131.5
     2.232              -43.43          14.32          45.06          46.56          -5.13         -7.907          44.57          28.83         -133.2           33.4          133.6
     2.276               -45.7          17.03          41.72          47.65         -4.259         -7.398          27.38          24.95         -126.5          34.45          135.6
     2.321              -47.79          19.54          38.64          48.66         -3.454         -6.928           11.5          21.37         -120.3          35.43          137.5
     2.366              -49.59           21.7          35.98          49.54          -2.76         -6.522         -2.196          18.28         -114.9          36.27          139.2
      2.41              -51.07          23.48           33.8          50.25         -2.191         -6.189         -13.44          15.74         -110.5          36.97          140.6
     2.455              -52.25          24.89          32.06          50.82         -1.738         -5.925         -22.38          13.72         -107.0          37.52          141.6
       2.5              -53.17          25.99          30.71          51.27         -1.383         -5.718         -29.37          12.14         -104.3          37.95          142.5
     2.544              -53.89          26.85          29.65          51.61         -1.107         -5.556         -34.83          10.91         -102.2          38.28          143.1
     2.589              -54.45          27.53          28.82          51.88        -0.8907          -5.43         -39.09          9.953         -100.5          38.54          143.6
     2.633              -54.89          28.05          28.17           52.1        -0.7209         -5.331         -42.44          9.196          -99.2          38.75          144.1
